<svg id="Capa_1" enable-background="new 0 0 512 512" height="512" viewBox="0 0 512 512" width="512" xmlns="http://www.w3.org/2000/svg"><g><g><path d="m378.607 334.517h-243.293c-70.649 0-127.921 57.272-127.921 127.921v26.483c0 2.761 2.239 5 5 5h487.215c2.761 0 5-2.239 5-5v-28.404c-.001-69.588-56.413-126-126.001-126z" fill="#057096"/></g><g><path d="m378.607 334.517h-74.385c69.637 0 126.089 56.452 126.089 126.089v28.386c0 2.722-2.206 4.928-4.928 4.928h74.296c2.722 0 4.928-2.207 4.928-4.928v-28.476c0-69.587-56.412-125.999-126-125.999z" fill="#055e7f"/></g><g><path d="m374.681 334.517h-237.362l61.134 159.404h115.093z" fill="#ecf4ff"/></g><g><path d="m374.681 334.517h-70.459c23.286 0 45.094 6.32 63.814 17.327z" fill="#ddeafb"/></g><g><path d="m381.471 228.015c-7.669 0-13.886-6.217-13.886-13.886v-25.429c0-18.066 14.646-32.712 32.712-32.712 10.717 0 19.406 8.688 19.406 19.406v14.39c-.001 21.114-17.117 38.231-38.232 38.231z" fill="#ffccbf"/></g><g><path d="m130.495 228.015c7.669 0 13.886-6.217 13.886-13.886v-25.429c0-18.066-14.646-32.712-32.712-32.712-10.717 0-19.406 8.688-19.406 19.406v14.39c0 21.114 17.117 38.231 38.232 38.231z" fill="#ffccbf"/></g><g><path d="m169.423 278.486h173.155v89.814h-173.155z" fill="#ffccbf"/></g><g><path d="m313.231 278.486h29.346v89.814h-29.346z" fill="#feae9e"/></g><g><path d="m348.178 281.735-28.955 23.976c-36.678 30.37-89.768 30.37-126.446 0l-28.955-23.976c-18.917-15.664-29.867-38.946-29.867-63.507v-98.456c0-56.163 45.529-101.692 101.692-101.692h40.705c56.163 0 101.692 45.529 101.692 101.692v98.456c.001 24.56-10.948 47.843-29.866 63.507z" fill="#ffccbf"/></g><g><path d="m276.353 18.079h-31.744c56.163 0 101.692 45.529 101.692 101.692v98.456c0 24.561-10.949 47.843-29.867 63.507l-28.955 23.976c-14 11.593-30.394 18.745-47.351 21.488 27.467 4.442 56.417-2.71 79.095-21.488l28.955-23.976c18.917-15.664 29.867-38.946 29.867-63.507v-98.456c0-56.163-45.529-101.692-101.692-101.692z" fill="#feae9e"/></g><g><path d="m262.895 270.69h-13.789c-7.581 0-13.727-6.146-13.727-13.727v-14.025h41.243v14.025c-.001 7.581-6.146 13.727-13.727 13.727z" fill="#e28086"/></g><g><path d="m173.561 27.187-28.978 17.25c-11.828 7.041-19.075 19.789-19.075 33.553v44.979c0 5.2 5.978 8.127 10.086 4.938l29.208-22.676c18.567-14.415 26.891-38.42 21.234-61.235l-3.209-12.943c-1.01-4.07-5.662-6.012-9.266-3.866z" fill="#ecf4ff"/></g><g><path d="m186.036 43.997-3.209-12.943c-1.009-4.071-5.662-6.013-9.266-3.867l-10.332 6.15.115.464c5.657 22.815-2.667 46.82-21.234 61.235l-16.602 12.889v15.044c0 5.2 5.978 8.127 10.086 4.938l29.208-22.676c18.567-14.414 26.891-38.419 21.234-61.234z" fill="#ddeafb"/></g><g><path d="m338.439 27.187 28.978 17.25c11.828 7.041 19.075 19.789 19.075 33.553v44.979c0 5.2-5.978 8.127-10.086 4.938l-29.208-22.676c-18.567-14.415-26.891-38.42-21.234-61.235l3.209-12.943c1.01-4.07 5.662-6.012 9.266-3.866z" fill="#ecf4ff"/></g><g><path d="m367.417 44.437-28.978-17.25c-3.604-2.145-8.256-.204-9.266 3.867l-3.209 12.943c-.057.229-.103.459-.157.688l19.365 11.528c11.828 7.041 19.075 19.789 19.075 33.553v28.701l12.16 9.44c4.107 3.189 10.086.262 10.086-4.938v-44.979c-.001-13.764-7.248-26.512-19.076-33.553z" fill="#ddeafb"/></g><g><path d="m285.035 493.921-11.157-77.558h-35.727l-11.157 77.558z" fill="#057096"/></g><g><path d="m273.878 416.363h-20.725l11.157 77.558h20.725z" fill="#055e7f"/></g><g><path d="m264.349 367.303h-16.669c-5.998 0-11.54 3.2-14.538 8.394l-8.334 14.435c-2.999 5.194-2.999 11.593 0 16.787l8.334 14.435c2.999 5.194 8.541 8.394 14.538 8.394h16.669c5.998 0 11.54-3.2 14.538-8.394l8.334-14.435c2.999-5.194 2.999-11.593 0-16.787l-8.334-14.435c-2.998-5.195-8.54-8.394-14.538-8.394z" fill="#057096"/></g><g><path d="m287.291 390.252-8.473-14.676c-.956-1.656-2.177-3.102-3.587-4.306l.41.71c2.956 5.12 2.956 11.427 0 16.547l-8.473 14.676c-2.956 5.12-8.418 8.273-14.33 8.273h-16.946c-4 0-7.792-1.448-10.743-3.968l8.063 13.966c2.956 5.12 8.418 8.273 14.33 8.273h16.946c5.912 0 11.374-3.154 14.33-8.273l8.473-14.676c2.956-5.119 2.956-11.426 0-16.546z" fill="#055e7f"/></g><g><path d="m171.367 323.213 81.465 40.06c3.896 1.916 4.281 7.32.696 9.769l-53.419 36.495c-3.727 2.546-8.828 1.45-11.179-2.403l-42.039-68.882c-1.612-2.642-.694-6.095 2.018-7.586l13.164-7.24c2.878-1.583 6.347-1.663 9.294-.213z" fill="#ecf4ff"/></g><g><path d="m252.832 363.272-15.013-7.383-31.364 21.427c-3.727 2.547-8.828 1.45-11.179-2.403l-31.803-52.11c-.477.174-.948.373-1.4.621l-13.164 7.24c-2.712 1.491-3.63 4.944-2.018 7.586l42.039 68.882c2.352 3.853 7.452 4.95 11.179 2.403l53.419-36.495c3.585-2.448 3.2-7.852-.696-9.768z" fill="#ddeafb"/></g><g><path d="m340.633 323.213-81.465 40.06c-3.896 1.916-4.281 7.32-.696 9.769l53.419 36.495c3.727 2.546 8.828 1.45 11.179-2.403l42.039-68.882c1.612-2.642.694-6.095-2.018-7.586l-13.164-7.24c-2.878-1.583-6.347-1.663-9.294-.213z" fill="#ecf4ff"/></g><g><path d="m363.091 330.665-13.164-7.24c-.422-.232-.859-.422-1.303-.589l-31.9 52.268c-2.352 3.853-7.452 4.95-11.179 2.403l-31.526-21.539-14.851 7.303c-3.896 1.916-4.281 7.32-.696 9.769l53.419 36.495c3.727 2.547 8.827 1.45 11.179-2.403l42.039-68.882c1.612-2.64.693-6.093-2.018-7.585z" fill="#ddeafb"/></g><path d="m263.936 270.647c7.077-.438 12.686-6.3 12.686-13.487v-14.222h-40.088z" fill="#dd636e"/><g><path d="m381.471 228.015c-7.669 0-13.886-6.217-13.886-13.886v-25.429c0-18.066 14.646-32.712 32.712-32.712 10.717 0 19.406 8.688 19.406 19.406v14.39c-.001 21.114-17.117 38.231-38.232 38.231z" fill="#feae9e"/></g><g><path d="m257.707 245.846 15.729 15.729c4.404 4.404 10.377 6.878 16.606 6.878h28.863c1.479 0 2.611-1.32 2.393-2.783-4.744-31.808-32.168-56.207-65.297-56.207s-60.553 24.399-65.297 56.207c-.218 1.463.913 2.783 2.393 2.783h28.863c6.228 0 12.202-2.474 16.606-6.878l15.729-15.729c.941-.943 2.469-.943 3.412 0z" fill="#ecf4ff"/></g><g><g><path d="m321.297 265.67c-4.744-31.808-32.168-56.207-65.297-56.207-3.971 0-7.858.36-11.636 1.032 27.739 4.934 49.486 27.181 53.661 55.176.218 1.463-.913 2.783-2.393 2.783h23.272c1.48-.001 2.611-1.321 2.393-2.784z" fill="#ddeafb"/></g></g><g><path d="m284.875 187.095-5.474-3.201c-2.18-1.275-3.519-3.61-3.519-6.135v-7.685c0-10.781-8.383-19.963-19.157-20.346-11.311-.402-20.607 8.648-20.607 19.869v8.162c0 2.525-1.34 4.86-3.519 6.135l-5.474 3.201c-3.34 1.954-5.393 5.533-5.393 9.402 0 6.016 4.877 10.892 10.892 10.892h6.725c1.614 0 3.168.62 4.33 1.74 3.194 3.08 7.533 4.978 12.321 4.978s9.127-1.898 12.321-4.978c1.162-1.12 2.715-1.74 4.33-1.74h6.725c6.016 0 10.892-4.877 10.892-10.892 0-3.869-2.053-7.448-5.393-9.402z" fill="#feae9e"/></g><g><g><path d="m284.875 187.095-5.474-3.201c-2.18-1.275-3.519-3.61-3.519-6.135v-7.685c0-10.781-8.383-19.963-19.157-20.346-3.035-.108-5.923.47-8.527 1.583 7.726 3.248 13.075 11.08 13.075 19.934v8.127c0 2.67 1.417 5.14 3.722 6.488l5.788 3.385c3.532 2.066 5.704 5.851 5.704 9.943 0 3.211-1.316 6.112-3.435 8.201h6.324c6.016 0 10.892-4.877 10.892-10.892 0-3.869-2.053-7.448-5.393-9.402z" fill="#f69480"/></g></g><g><path d="m378.518 327.125h-8.296c-1-1.175-2.199-2.183-3.568-2.937l-13.164-7.24c-1.127-.62-2.309-1.099-3.519-1.453v-25.646l2.923-2.421c16.211-13.423 27-31.822 30.909-52.079 24.078-1.218 43.293-21.19 43.293-45.565v-14.391c0-14.777-12.022-26.798-26.798-26.798-5.107 0-10.158.989-14.859 2.862v-15.895c.268-.111.539-.209.803-.338 4.716-2.309 7.645-7.005 7.645-12.255v-44.979c0-16.285-8.693-31.576-22.686-39.905l-28.977-17.25c-.001 0-.001 0-.001 0-3.749-2.231-8.209-2.547-12.236-.866-1.532.64-2.899 1.53-4.067 2.617-5.666-2.894-11.574-5.298-17.653-7.155-3.901-1.192-8.037 1.004-9.23 4.91-1.193 3.904 1.005 8.037 4.91 9.23 5.631 1.72 11.096 3.979 16.313 6.728l-1.468 5.919c-6.356 25.632 3.016 52.658 23.876 68.853l27.987 21.728v19.808h-23.251c-3.471-18.199-19.494-32.002-38.689-32.002-16.967 0-31.463 10.782-36.997 25.855-4.344-2.469-9.27-3.899-14.442-4.102-.832-.046-1.67-.038-2.502-.001-5.186.196-10.129 1.627-14.486 4.105-5.533-15.073-20.03-25.856-36.998-25.856-19.195 0-35.218 13.803-38.689 32.002h-23.251v-19.807l27.987-21.728c20.86-16.195 30.232-43.221 23.876-68.853l-1.466-5.911c13.472-7.094 28.552-10.836 43.902-10.836h36.555c4.083 0 7.393-3.31 7.393-7.393s-3.309-7.393-7.393-7.393h-36.555c-17.287 0-34.286 4.103-49.564 11.899-1.168-1.088-2.536-1.978-4.068-2.617-4.026-1.681-8.487-1.364-12.235.867l-28.978 17.25c-13.993 8.33-22.686 23.621-22.686 39.906v44.979c0 5.25 2.929 9.946 7.644 12.255.263.129.534.227.802.338v15.895c-4.688-1.875-9.729-2.862-14.894-2.862-14.777 0-26.798 12.022-26.798 26.798v14.391c0 24.387 19.233 44.365 43.327 45.566 3.909 20.258 14.698 38.656 30.91 52.079l2.923 2.42v25.646c-1.211.353-2.392.832-3.52 1.452l-13.164 7.241c-1.37.753-2.568 1.761-3.568 2.936h-8.296c-73.604-.001-133.484 59.879-133.484 133.481v28.386c0 6.794 5.527 12.321 12.321 12.321h340.872c4.083 0 7.393-3.31 7.393-7.393s-3.309-7.393-7.393-7.393h-28.893l55.458-144.603c64.88.669 117.457 53.646 117.457 118.681v25.922h-108.407c-4.083 0-7.393 3.31-7.393 7.393s3.309 7.393 7.393 7.393h110.871c6.794 0 12.321-5.527 12.321-12.321v-28.386c0-73.602-59.88-133.482-133.482-133.482zm-20.79 9.028-40.969 67.129c-.03.05-.11.18-.317.225-.209.046-.334-.042-.382-.075l-50.979-34.829 78.814-38.756c.783-.386 1.706-.364 2.469.056zm-140.994 70.979c.444 1.155.978 2.281 1.603 3.363l8.473 14.676c.638 1.105 1.367 2.138 2.159 3.111l-8.379 58.246h-17.053l-42.598-111.071 21.682 35.527c4.284 7.342 14.727 9.594 21.66 4.656zm18.792 79.397 7.177-49.889c1.577.328 3.196.501 4.839.501h16.946c1.642 0 3.262-.174 4.838-.501l7.177 49.889zm45.362-83.427-8.473 14.676c-1.631 2.824-4.668 4.578-7.928 4.578h-16.946c-3.26 0-6.298-1.754-7.928-4.577l-8.473-14.677c-.877-1.519-1.28-3.259-1.203-4.989l26.063-17.807 26.103 17.833c.076 1.723-.331 3.435-1.215 4.963zm131.421-227.709v14.391c0 15.67-11.751 28.638-26.902 30.579.017-.711.029-1.422.029-2.135v-50.005c4.336-3.159 9.443-4.843 14.859-4.843 6.626 0 12.014 5.389 12.014 12.013zm-79.17-129.617 2.84-11.451 27.657 16.464c9.538 5.678 15.464 16.101 15.464 27.201v42.649l-27.367-21.248c-16.245-12.61-23.542-33.655-18.594-53.615zm-24.427 89.614c13.569 0 24.609 11.04 24.609 24.609s-11.04 24.609-24.609 24.609-24.609-11.04-24.609-24.609 11.039-24.609 24.609-24.609zm-30.048 120.958-15.729-15.728c-1.852-1.853-4.315-2.874-6.935-2.874s-5.083 1.02-6.934 2.872l-15.729 15.729c-3.039 3.039-7.081 4.713-11.379 4.713h-22.801c5.41-21.383 22.598-38.168 44.408-42.876 3.757 2.148 8.012 3.317 12.435 3.317 4.424 0 8.678-1.169 12.436-3.317 21.797 4.706 38.996 21.518 44.406 42.876h-22.801c-4.297 0-8.338-1.674-11.377-4.712zm-14.135 6.774c-.465.111-.945.175-1.437.175h-14.183c-.491 0-.969-.069-1.432-.18l8.524-8.524zm14.846-63.124h-6.725c-3.553 0-6.912 1.354-9.461 3.811-1.943 1.875-4.497 2.907-7.19 2.907-2.692 0-5.246-1.032-7.19-2.908-2.549-2.457-5.909-3.81-9.46-3.81h-6.725c-1.93 0-3.5-1.57-3.5-3.5 0-1.238.664-2.396 1.733-3.021l5.474-3.201c4.428-2.59 7.179-7.386 7.179-12.516v-8.162c0-3.42 1.356-6.612 3.818-8.989 2.481-2.398 5.807-3.656 9.249-3.483 6.578.299 11.912 6.079 11.912 12.948v7.685c0 5.13 2.751 9.926 7.18 12.517l5.473 3.201c1.068.625 1.733 1.783 1.733 3.021 0 1.93-1.57 3.5-3.5 3.5zm-76.087-64.608c13.57 0 24.61 11.04 24.61 24.609s-11.04 24.609-24.61 24.609c-13.569 0-24.609-11.04-24.609-24.609-.001-13.569 11.039-24.609 24.609-24.609zm-70.387-57.4c0-11.1 5.925-21.523 15.463-27.201l27.657-16.464 2.839 11.451c4.95 19.96-2.349 41.005-18.592 53.616l-27.368 21.247v-42.649zm8.447 140.238v-16.37c0-4.083-3.31-7.393-7.393-7.393s-7.393 3.31-7.393 7.393v16.37c0 .714.013 1.427.029 2.139-15.168-1.925-26.936-14.901-26.936-30.583v-14.391c0-6.624 5.389-12.013 12.013-12.013 5.4 0 10.586 1.708 14.894 4.849v.126c0 4.083 3.31 7.393 7.393 7.393s7.393-3.31 7.393-7.393v-.963h23.251c3.471 18.199 19.494 32.002 38.689 32.002 3.86 0 7.589-.568 11.117-1.608.37 5.264 2.966 9.916 6.864 13.017-20.022 10.774-34.411 30.537-37.878 53.774-.422 2.829.407 5.694 2.274 7.861 1.865 2.165 4.574 3.407 7.431 3.407h28.862c4.633 0 9.11-1.014 13.178-2.936 3.745 3.281 8.596 5.173 13.772 5.173h14.183c5.186 0 10.028-1.869 13.781-5.169 4.066 1.92 8.54 2.932 13.17 2.932h28.863c2.855 0 5.563-1.241 7.428-3.404 1.867-2.166 2.697-5.03 2.276-7.862-3.462-23.208-17.863-42.988-37.885-53.771 3.902-3.101 6.5-7.754 6.871-13.021 3.528 1.04 7.256 1.608 11.117 1.608 19.195 0 35.218-13.803 38.689-32.002h23.251v50.836c0 22.433-9.91 43.505-27.188 57.813l-28.955 23.976c-33.903 28.072-83.115 28.072-117.017 0l-28.955-23.976c-17.279-14.309-27.189-35.381-27.189-57.814zm46.714 93.177c19.683 16.298 43.81 24.447 67.938 24.447 24.127 0 48.255-8.149 67.938-24.447l11.247-9.313v15.562l-79.185 38.938-79.185-38.938v-15.562zm-22.427 18.498c.763-.42 1.687-.442 2.469-.056l78.815 38.756-50.98 34.829c-.048.033-.176.118-.382.075-.207-.044-.287-.176-.317-.225l-40.969-67.129zm-150.85 130.704c0-65.035 52.577-118.013 117.457-118.681l55.458 144.603h-172.915zm276.656 25.922-8.379-58.248c.792-.973 1.521-2.006 2.158-3.11l8.472-14.675c.625-1.083 1.158-2.201 1.602-3.345l12.426 8.489c3.445 2.356 7.772 3.197 11.83 2.322 4.076-.876 7.659-3.42 9.831-6.978l21.681-35.525-42.597 111.069h-17.024z"/><path d="m139.696 447.75h-57.798c-4.083 0-7.393 3.31-7.393 7.393s3.31 7.393 7.393 7.393h57.798c4.083 0 7.393-3.31 7.393-7.393s-3.31-7.393-7.393-7.393z"/><circle cx="203.288" cy="159.999" r="10.284"/><circle cx="308.712" cy="159.999" r="10.284"/></g></g></svg>